<svg width="357" height="95" viewBox="0 0 357 95" fill="none" xmlns="http://www.w3.org/2000/svg">
<path d="M318.045 94.848V89.28H319.773C321.821 89.28 323.773 88.736 325.629 87.648C327.485 86.56 328.989 84.768 330.141 82.272C331.293 79.776 331.869 76.384 331.869 72.096V14.208C331.869 12.48 331.645 11.2 331.197 10.368C330.749 9.53601 330.141 8.99201 329.373 8.73602C328.669 8.48001 327.869 8.35201 326.973 8.35201H322.941V3.26401H356.061V8.35201H352.029C351.133 8.35201 350.301 8.51201 349.533 8.83201C348.765 9.08801 348.157 9.66401 347.709 10.56C347.261 11.392 347.037 12.736 347.037 14.592V72C347.037 76.352 346.333 80 344.925 82.944C343.517 85.888 341.597 88.224 339.165 89.952C336.797 91.68 334.077 92.928 331.005 93.696C327.933 94.464 324.765 94.848 321.501 94.848H318.045Z" fill="black"/>
<path d="M252.964 71.808V66.72H254.116C255.268 66.72 256.292 66.528 257.188 66.144C258.084 65.76 258.884 65.088 259.588 64.128C260.356 63.104 261.092 61.632 261.796 59.712L282.628 3.26401H295.78L315.844 59.808C316.484 61.6 317.156 63.008 317.86 64.032C318.628 64.992 319.428 65.696 320.26 66.144C321.156 66.528 322.116 66.72 323.14 66.72H324.868V71.808H293.188V66.72H296.932C297.892 66.72 298.82 66.432 299.716 65.856C300.612 65.28 301.06 64.32 301.06 62.976C301.06 62.464 300.996 61.952 300.868 61.44C300.804 60.928 300.708 60.448 300.58 60C300.452 59.552 300.324 59.168 300.196 58.848L296.836 49.248H273.508L270.724 57.504C270.596 58.016 270.436 58.592 270.244 59.232C270.052 59.872 269.892 60.544 269.764 61.248C269.636 61.888 269.572 62.464 269.572 62.976C269.572 64.192 270.02 65.12 270.916 65.76C271.812 66.4 272.804 66.72 273.892 66.72H277.924V71.808H252.964ZM275.524 43.392H294.916L289.828 27.648C289.38 26.176 288.9 24.608 288.388 22.944C287.876 21.216 287.396 19.488 286.948 17.76C286.5 16.032 286.084 14.432 285.7 12.96C285.444 13.984 285.124 15.104 284.74 16.32C284.356 17.472 283.972 18.688 283.588 19.968C283.204 21.184 282.788 22.432 282.34 23.712C281.956 24.928 281.572 26.08 281.188 27.168L275.524 43.392Z" fill="black"/>
<path d="M197.255 71.808V66.72H201.287C202.247 66.72 203.079 66.592 203.783 66.336C204.551 66.016 205.127 65.408 205.511 64.512C205.959 63.616 206.183 62.272 206.183 60.48V14.592C206.183 12.736 205.959 11.392 205.511 10.56C205.127 9.66401 204.551 9.08801 203.783 8.83201C203.079 8.51201 202.247 8.35201 201.287 8.35201H197.255V3.26401H230.375V8.35201H226.343C225.447 8.35201 224.615 8.48001 223.847 8.73602C223.143 8.99201 222.567 9.53601 222.119 10.368C221.671 11.2 221.447 12.48 221.447 14.208V65.952H239.303C240.775 65.952 242.023 65.632 243.047 64.992C244.135 64.352 244.999 63.424 245.639 62.208C246.343 60.928 246.887 59.392 247.271 57.6L248.807 50.4H254.183L253.511 71.808H197.255Z" fill="black"/>
<path d="M139.336 71.808V66.72H143.368C144.264 66.72 145.064 66.592 145.768 66.336C146.536 66.08 147.144 65.536 147.592 64.704C148.04 63.872 148.264 62.624 148.264 60.96V14.592C148.264 12.736 148.04 11.392 147.592 10.56C147.208 9.66401 146.632 9.08801 145.864 8.83201C145.16 8.51201 144.328 8.35201 143.368 8.35201H139.336V3.26401H192.616L193 20.928H186.28L185.8 16.416C185.672 14.816 185.352 13.504 184.84 12.48C184.392 11.392 183.752 10.56 182.92 9.98401C182.088 9.40801 181 9.12001 179.656 9.12001H163.528V33.12H186.28V38.88H163.528V65.952H182.728C184.008 65.952 185.064 65.632 185.896 64.992C186.728 64.352 187.368 63.488 187.816 62.4C188.328 61.312 188.68 60.064 188.872 58.656L189.64 54.144H196.264L195.592 71.808H139.336Z" fill="black"/>
<path d="M82.9178 71.808V66.72H86.9498C87.9098 66.72 88.7418 66.592 89.4458 66.336C90.2138 66.016 90.7898 65.408 91.1738 64.512C91.6218 63.616 91.8457 62.272 91.8457 60.48V14.208C91.8457 12.48 91.6218 11.2 91.1738 10.368C90.7258 9.53601 90.1178 8.99201 89.3498 8.73602C88.6458 8.48001 87.8458 8.35201 86.9498 8.35201H82.9178V3.26401H112.39C121.286 3.26401 127.878 5.08801 132.166 8.73602C136.454 12.384 138.598 17.344 138.598 23.616C138.598 26.496 138.086 29.248 137.062 31.872C136.038 34.496 134.406 36.864 132.166 38.976C129.99 41.024 127.078 42.656 123.43 43.872C119.846 45.024 115.462 45.6 110.278 45.6H107.014V60.96C107.014 62.624 107.238 63.872 107.686 64.704C108.198 65.536 108.838 66.08 109.606 66.336C110.374 66.592 111.206 66.72 112.102 66.72H117.958V71.808H82.9178ZM109.318 40.032C111.686 40.032 113.702 39.744 115.366 39.168C117.03 38.528 118.374 37.6 119.398 36.384C120.486 35.104 121.254 33.44 121.702 31.392C122.214 29.344 122.47 26.88 122.47 24C122.47 20.544 122.086 17.728 121.318 15.552C120.55 13.312 119.302 11.648 117.574 10.56C115.91 9.47201 113.638 8.92801 110.758 8.92801H107.014V40.032H109.318Z" fill="black"/>
<path d="M48.489 0H53.961L29.097 85.536H23.625L48.489 0Z" fill="#32BBFF"/>
<path d="M24.864 0H30.336L5.472 85.536H0L24.864 0Z" fill="#32BBFF"/>
</svg>
